<svg width="25" height="25" viewBox="0 0 25 25" fill="none" xmlns="http://www.w3.org/2000/svg">
<mask id="mask0_115_7" style="mask-type:alpha" maskUnits="userSpaceOnUse" x="0" y="0" width="25" height="25">
<rect x="0.680237" y="0.925293" width="24" height="24" fill="#D9D9D9"/>
</mask>
<g mask="url(#mask0_115_7)">
<path d="M12.6802 21.9253C10.1802 21.9253 8.05524 21.0503 6.30524 19.3003C4.55524 17.5503 3.68024 15.4253 3.68024 12.9253C3.68024 10.4253 4.55524 8.30029 6.30524 6.55029C8.05524 4.80029 10.1802 3.92529 12.6802 3.92529C12.9136 3.92529 13.1429 3.93363 13.3682 3.95029C13.5929 3.96696 13.8136 3.99196 14.0302 4.02529C13.3469 4.50863 12.8012 5.13763 12.3932 5.91229C11.9846 6.68763 11.7802 7.52529 11.7802 8.42529C11.7802 9.92529 12.3052 11.2003 13.3552 12.2503C14.4052 13.3003 15.6802 13.8253 17.1802 13.8253C18.0969 13.8253 18.9386 13.621 19.7052 13.2123C20.4719 12.8043 21.0969 12.2586 21.5802 11.5753C21.6136 11.792 21.6386 12.0126 21.6552 12.2373C21.6719 12.4626 21.6802 12.692 21.6802 12.9253C21.6802 15.4253 20.8052 17.5503 19.0552 19.3003C17.3052 21.0503 15.1802 21.9253 12.6802 21.9253ZM12.6802 19.9253C14.1469 19.9253 15.4636 19.5213 16.6302 18.7133C17.7969 17.9046 18.6469 16.8503 19.1802 15.5503C18.8469 15.6336 18.5136 15.7003 18.1802 15.7503C17.8469 15.8003 17.5136 15.8253 17.1802 15.8253C15.1302 15.8253 13.3842 15.1046 11.9422 13.6633C10.5009 12.2213 9.78024 10.4753 9.78024 8.42529C9.78024 8.09196 9.80524 7.75863 9.85524 7.42529C9.90524 7.09196 9.9719 6.75863 10.0552 6.42529C8.75524 6.95863 7.70124 7.80863 6.89324 8.97529C6.08457 10.142 5.68024 11.4586 5.68024 12.9253C5.68024 14.8586 6.36357 16.5086 7.73024 17.8753C9.0969 19.242 10.7469 19.9253 12.6802 19.9253Z" fill="#1C1B1F"/>
</g>
</svg>
